<?xml version="1.0" standalone="no"?>
<!DOCTYPE svg PUBLIC "-//W3C//DTD SVG 20010904//EN"
 "http://www.w3.org/TR/2001/REC-SVG-20010904/DTD/svg10.dtd">
<svg version="1.0" xmlns="http://www.w3.org/2000/svg"
 width="256.000000pt" height="256.000000pt" viewBox="0 0 256.000000 256.000000"
 preserveAspectRatio="xMidYMid meet">
<metadata>
Created by potrace 1.11, written by Peter Selinger 2001-2013
</metadata>
<g transform="translate(0.000000,256.000000) scale(0.100000,-0.100000)"
fill="#000000" stroke="none">
<path d="M270 2341 c-72 -22 -119 -63 -145 -123 -13 -33 -15 -127 -15 -728 0
-660 1 -692 19 -728 25 -48 66 -87 113 -106 32 -14 98 -16 433 -16 l395 0 0
-105 0 -104 -107 -3 -108 -3 0 -105 0 -105 425 0 425 0 0 105 0 105 -107 3
-108 3 0 104 0 105 388 0 c242 0 401 4 425 11 21 6 56 26 77 45 73 67 71 36
68 816 l-3 696 -30 44 c-17 23 -51 54 -75 68 l-45 25 -1000 2 c-550 1 -1011
-2 -1025 -6z m1970 -851 l0 -640 -960 0 -960 0 0 640 0 640 960 0 960 0 0
-640z"/>
<path d="M530 1655 l0 -265 480 0 480 0 0 265 0 265 -480 0 -480 0 0 -265z"/>
<path d="M1600 1815 l0 -105 215 0 215 0 0 105 0 105 -215 0 -215 0 0 -105z"/>
<path d="M1600 1335 l0 -265 215 0 215 0 0 265 0 265 -215 0 -215 0 0 -265z"/>
<path d="M530 1175 l0 -105 215 0 215 0 0 105 0 105 -215 0 -215 0 0 -105z"/>
<path d="M1070 1175 l0 -105 210 0 210 0 0 105 0 105 -210 0 -210 0 0 -105z"/>
</g>
</svg>
